<?xml version="1.0" encoding="UTF-8" standalone="no"?>
<!-- Created with Labography (http://www.axpha.com) -->
<svg xmlns="http://www.w3.org/2000/svg" xmlns:cc="http://web.resource.org/cc/" xmlns:dc="http://purl.org/dc/elements/1.1/" xmlns:rdf="http://www.w3.org/1999/02/22-rdf-syntax-ns#"  xmlns:svg="http://www.w3.org/2000/svg" xmlns:xlink="http://www.w3.org/1999/xlink"
x="0.0000" y="0.0000" width="1277.648" height="893.5931" >
<metadata>
	<rdf:RDF
		xmlns:rdf = "http://www.w3.org/1999/02/22-rdf-syntax-ns#"
		xmlns:rdfs = "http://www.w3.org/2000/01/rdf-schema#"
		xmlns:dc = "http://purl.org/dc/elements/1.1/" >
		<cc:Work>
			<dc:format>svg+xml</dc:format>
		</cc:Work>
	
	</rdf:RDF>
</metadata>
<defs>

</defs>
<g
     id="g1"
     transform="translate(-319.9961,-109.9987)">

<path 
      style="fill:#231F1F;fill-opacity:1;fill-rule:evenodd;stroke:none"
      d="M 1048.397 595.8158 C 1088.63 598.7769 1207.162 540.0945 1248.733 474.1111 1255.312 466.4774 1261.585 458.6474 1267.486 450.7004 1265.696 458.8441 1263.51 467.0696 1261.004 475.3287 1261.737 486.6962 1258.855 495.1682 1249.092 508.4277 1255.536 503.4429 1261.795 498.3926 1267.919 493.1937 1308.265 453.2349 1331.239 401.479 1339.018 356.8473 1340.339 341.2522 1340.531 325.7711 1339.622 310.4876 1332.557 263.3551 1313.955 218.4769 1278.868 186.7096 1273.854 180.425 1268.654 174.3378 1263.207 168.4474 1269.934 170.2411 1276.662 172.1666 1283.371 174.2225 1323.077 186.7425 1364.402 202.881 1392.387 247.596 1394.706 253.3361 1396.948 259.1444 1399.022 265.0164 1408.876 218.5429 1404.203 175.9007 1388.299 134.7235 1385.435 126.4654 1382.25 118.2226 1378.801 109.9987 1384.944 115.1156 1390.974 120.3779 1396.854 125.8072 1470.574 198.2915 1507.983 318.4497 1465.525 431.3383 1499.876 383.6462 1528.391 329.1443 1534.873 257.9749 1536.437 248.0065 1537.663 237.8891 1538.567 227.6725 1540.904 238.4155 1542.881 249.2076 1544.465 260.0322 1564.93 348.2099 1552.72 442.6563 1488.497 535.0448 1480.13 547.482 1471.216 559.6887 1461.831 571.6487 1514.822 528.531 1562.406 489.3941 1597.644 416.0709 1594.044 431.4363 1589.748 446.7198 1584.774 461.9042 1555.113 553.5038 1481.393 641.0563 1389.58 708.2109 1386.076 710.5787 1382.552 712.9319 1379.008 715.2675 1428.342 698.4383 1477.849 677.6772 1534.081 641.2377 1542.409 637.2071 1550.722 633.0112 1558.975 628.6191 1549.929 638.2927 1540.585 647.7358 1530.972 656.9814 1479.28 718.8212 1411.438 768.3725 1324.756 812.0671 1320.043 812.8073 1315.333 813.4813 1310.641 814.1235 1320.024 812.8233 1329.408 811.3758 1338.832 809.78 1368.775 808.4645 1361.143 823.4517 1324.756 850.6943 1289.438 881.3596 1247.227 899.522 1174.864 916.1373 1170.077 917.47 1165.292 918.7859 1160.503 920.0693 1160.955 924.3792 1160.955 924.3792 1161.463 928.6731 1148.838 945.3547 1088.349 974.5066 1010.011 978.3559 994.4086 980.1318 963.8608 978.1575 948.2774 978.7172 943.3037 977.5324 938.3654 976.2826 933.4082 975.0157 931.092 987.3048 896.1534 1003.592 815.0271 997.3398 782.5392 994.7897 735.9933 983.7179 706.5585 973.0746 688.4282 973.7159 688.4282 973.7159 670.1843 973.8965 617.5339 970.262 568.5188 954.1724 528.0783 927.9661 319.9961 763.1241 454.8877 701.4332 600.3281 679.0593 675.5741 665.437 757.2679 655.254 831.1201 637.9967 906.2541 622.2695 973.5275 599.5003 1048.397 595.8158 "/>


</g>
</svg>