<?xml version="1.0" encoding="UTF-8" standalone="no"?>
<!-- Created with Labography (http://www.axpha.com) -->
<svg xmlns="http://www.w3.org/2000/svg" xmlns:cc="http://web.resource.org/cc/" xmlns:dc="http://purl.org/dc/elements/1.1/" xmlns:rdf="http://www.w3.org/1999/02/22-rdf-syntax-ns#"  xmlns:svg="http://www.w3.org/2000/svg" xmlns:xlink="http://www.w3.org/1999/xlink"
x="0.0000" y="0.0000" width="1277.648" height="893.5931" >
<metadata>
	<rdf:RDF
		xmlns:rdf = "http://www.w3.org/1999/02/22-rdf-syntax-ns#"
		xmlns:rdfs = "http://www.w3.org/2000/01/rdf-schema#"
		xmlns:dc = "http://purl.org/dc/elements/1.1/" >
		<cc:Work>
			<dc:format>svg+xml</dc:format>
		</cc:Work>
	
	</rdf:RDF>
</metadata>
<defs>

</defs>
<g
     id="g1"
     transform="translate(-319.196,-109.9987)">

<path 
      style="fill:#231F1F;fill-opacity:1;fill-rule:evenodd;stroke:none"
      d="M 868.4437 595.8158 C 828.2108 598.7769 709.6782 540.0945 668.1077 474.1111 661.5287 466.4774 655.255 458.6474 649.3549 450.7004 651.1448 458.8441 653.33 467.0696 655.8367 475.3287 655.1034 486.6962 657.9858 495.1682 667.7482 508.4277 661.3043 503.4429 655.0454 498.3926 648.9216 493.1937 608.5759 453.2349 585.6019 401.479 577.8221 356.8473 576.5011 341.2522 576.3099 325.7711 577.2185 310.4876 584.2837 263.3551 602.8851 218.4769 637.9728 186.7096 642.9867 180.425 648.1868 174.3378 653.6332 168.4474 646.9064 170.2411 640.1781 172.1666 633.4691 174.2225 593.7631 186.7425 552.438 202.881 524.453 247.596 522.1345 253.3361 519.8922 259.1444 517.8184 265.0164 507.9646 218.5429 512.6376 175.9007 528.5413 134.7235 531.4058 126.4654 534.5906 118.2226 538.0398 109.9987 531.8961 115.1156 525.8663 120.3779 519.9866 125.8072 446.266 198.2915 408.8579 318.4497 451.3158 431.3383 416.964 383.6462 388.4493 329.1443 381.9678 257.9749 380.4032 248.0065 379.1775 237.8891 378.2731 227.6725 375.9363 238.4155 373.9598 249.2076 372.3756 260.0322 351.9104 348.2099 364.1207 442.6563 428.3434 535.0448 436.7103 547.482 445.6249 559.6887 455.0093 571.6487 402.0187 528.531 354.4349 489.3941 319.196 416.0709 322.796 431.4363 327.092 446.7198 332.0669 461.9042 361.7278 553.5038 435.4479 641.0563 527.2601 708.2109 530.764 710.5787 534.288 712.9319 537.8329 715.2675 488.4984 698.4383 438.9916 677.6772 382.7595 641.2377 374.4313 637.2071 366.1187 633.0112 357.8654 628.6191 366.9115 638.2927 376.255 647.7358 385.868 656.9814 437.5607 718.8212 505.4025 768.3725 592.0848 812.0671 596.797 812.8073 601.5071 813.4813 606.1993 814.1235 596.8162 812.8233 587.4326 811.3758 578.0089 809.78 548.0657 808.4645 555.6973 823.4517 592.0848 850.6943 627.4021 881.3596 669.6132 899.522 741.9769 916.1373 746.7638 917.47 751.5483 918.7859 756.337 920.0693 755.8855 924.3792 755.8855 924.3792 755.3774 928.6731 768.0027 945.3547 828.4918 974.5066 906.829 978.3559 922.4319 980.1318 952.9797 978.1575 968.563 978.7172 973.5367 977.5324 978.475 976.2826 983.4323 975.0157 985.7484 987.3048 1020.687 1003.592 1101.813 997.3398 1134.301 994.7897 1180.847 983.7179 1210.282 973.0746 1228.412 973.7159 1228.412 973.7159 1246.656 973.8965 1299.307 970.262 1348.322 954.1724 1388.762 927.9661 1596.844 763.1241 1461.953 701.4332 1316.512 679.0593 1241.266 665.437 1159.573 655.254 1085.72 637.9967 1010.586 622.2695 943.313 599.5003 868.4437 595.8158 "/>


</g>
</svg>